<svg xmlns="http://www.w3.org/2000/svg" xmlns:xlink="http://www.w3.org/1999/xlink" width="2000" zoomAndPan="magnify" viewBox="0 0 1500 1499.999933" height="2000" preserveAspectRatio="xMidYMid meet" version="1.0"><defs><g/><clipPath id="f60e08a310"><path d="M 271.375 271.375 L 1228.625 271.375 L 1228.625 1228.625 L 271.375 1228.625 Z M 271.375 271.375 " clip-rule="nonzero"/></clipPath><clipPath id="274352a676"><path d="M 750 271.375 C 485.664062 271.375 271.375 485.664062 271.375 750 C 271.375 1014.335938 485.664062 1228.625 750 1228.625 C 1014.335938 1228.625 1228.625 1014.335938 1228.625 750 C 1228.625 485.664062 1014.335938 271.375 750 271.375 Z M 750 271.375 " clip-rule="nonzero"/></clipPath><clipPath id="a4035d68b7"><path d="M 0.375 0.375 L 957.625 0.375 L 957.625 957.625 L 0.375 957.625 Z M 0.375 0.375 " clip-rule="nonzero"/></clipPath><clipPath id="729ecb7d4a"><path d="M 479 0.375 C 214.664062 0.375 0.375 214.664062 0.375 479 C 0.375 743.335938 214.664062 957.625 479 957.625 C 743.335938 957.625 957.625 743.335938 957.625 479 C 957.625 214.664062 743.335938 0.375 479 0.375 Z M 479 0.375 " clip-rule="nonzero"/></clipPath><clipPath id="fe16614015"><rect x="0" width="958" y="0" height="958"/></clipPath><clipPath id="7bc1d1e1fa"><path d="M 294.300781 294.300781 L 1205.699219 294.300781 L 1205.699219 1205.699219 L 294.300781 1205.699219 Z M 294.300781 294.300781 " clip-rule="nonzero"/></clipPath><clipPath id="d225ce1f8e"><path d="M 750 294.300781 C 498.324219 294.300781 294.300781 498.324219 294.300781 750 C 294.300781 1001.675781 498.324219 1205.699219 750 1205.699219 C 1001.675781 1205.699219 1205.699219 1001.675781 1205.699219 750 C 1205.699219 498.324219 1001.675781 294.300781 750 294.300781 Z M 750 294.300781 " clip-rule="nonzero"/></clipPath><clipPath id="35ce60527c"><path d="M 0.300781 0.300781 L 911.699219 0.300781 L 911.699219 911.699219 L 0.300781 911.699219 Z M 0.300781 0.300781 " clip-rule="nonzero"/></clipPath><clipPath id="3741b00789"><path d="M 456 0.300781 C 204.324219 0.300781 0.300781 204.324219 0.300781 456 C 0.300781 707.675781 204.324219 911.699219 456 911.699219 C 707.675781 911.699219 911.699219 707.675781 911.699219 456 C 911.699219 204.324219 707.675781 0.300781 456 0.300781 Z M 456 0.300781 " clip-rule="nonzero"/></clipPath><clipPath id="a46b779969"><rect x="0" width="912" y="0" height="912"/></clipPath><clipPath id="082fd41e66"><path d="M 0.300781 0.300781 L 911.699219 0.300781 L 911.699219 911.699219 L 0.300781 911.699219 Z M 0.300781 0.300781 " clip-rule="nonzero"/></clipPath><clipPath id="e294e12fe6"><path d="M 456 0.300781 C 204.324219 0.300781 0.300781 204.324219 0.300781 456 C 0.300781 707.675781 204.324219 911.699219 456 911.699219 C 707.675781 911.699219 911.699219 707.675781 911.699219 456 C 911.699219 204.324219 707.675781 0.300781 456 0.300781 Z M 456 0.300781 " clip-rule="nonzero"/></clipPath><clipPath id="87cfad8d00"><rect x="0" width="912" y="0" height="912"/></clipPath><clipPath id="8f111dd318"><path d="M 420.613281 420.613281 L 1079.386719 420.613281 L 1079.386719 1079.386719 L 420.613281 1079.386719 Z M 420.613281 420.613281 " clip-rule="nonzero"/></clipPath><clipPath id="0d46cd7158"><path d="M 750 420.613281 C 568.085938 420.613281 420.613281 568.085938 420.613281 750 C 420.613281 931.914062 568.085938 1079.386719 750 1079.386719 C 931.914062 1079.386719 1079.386719 931.914062 1079.386719 750 C 1079.386719 568.085938 931.914062 420.613281 750 420.613281 Z M 750 420.613281 " clip-rule="nonzero"/></clipPath><clipPath id="167c7c3d0b"><path d="M 0.613281 0.613281 L 659.386719 0.613281 L 659.386719 659.386719 L 0.613281 659.386719 Z M 0.613281 0.613281 " clip-rule="nonzero"/></clipPath><clipPath id="26f716c796"><path d="M 330 0.613281 C 148.085938 0.613281 0.613281 148.085938 0.613281 330 C 0.613281 511.914062 148.085938 659.386719 330 659.386719 C 511.914062 659.386719 659.386719 511.914062 659.386719 330 C 659.386719 148.085938 511.914062 0.613281 330 0.613281 Z M 330 0.613281 " clip-rule="nonzero"/></clipPath><clipPath id="f20d87b1a8"><rect x="0" width="660" y="0" height="660"/></clipPath><clipPath id="bef120efaa"><path d="M 317.105469 711 L 395.105469 711 L 395.105469 788.871094 L 317.105469 788.871094 Z M 317.105469 711 " clip-rule="nonzero"/></clipPath><clipPath id="35613beadc"><path d="M 1105 711 L 1182.636719 711 L 1182.636719 788.871094 L 1105 788.871094 Z M 1105 711 " clip-rule="nonzero"/></clipPath><clipPath id="e749a8ad2e"><path d="M 494.660156 413.433594 L 1005.410156 413.433594 L 1005.410156 1050.933594 L 494.660156 1050.933594 Z M 494.660156 413.433594 " clip-rule="nonzero"/></clipPath><clipPath id="99345aea76"><path d="M 724 413.433594 L 736 413.433594 L 736 616 L 724 616 Z M 724 413.433594 " clip-rule="nonzero"/></clipPath><clipPath id="09cec4b6a6"><path d="M 737 413.433594 L 748 413.433594 L 748 616 L 737 616 Z M 737 413.433594 " clip-rule="nonzero"/></clipPath><clipPath id="edb60912e8"><path d="M 764 413.433594 L 775 413.433594 L 775 616 L 764 616 Z M 764 413.433594 " clip-rule="nonzero"/></clipPath><clipPath id="5b4ac8dec0"><path d="M 752 413.433594 L 763 413.433594 L 763 616 L 752 616 Z M 752 413.433594 " clip-rule="nonzero"/></clipPath><clipPath id="406d0f3031"><rect x="0" width="804" y="0" height="302"/></clipPath><clipPath id="a77add519b"><rect x="0" width="783" y="0" height="289"/></clipPath></defs><g clip-path="url(#f60e08a310)"><g clip-path="url(#274352a676)"><g transform="matrix(1, 0, 0, 1, 271, 271)"><g clip-path="url(#fe16614015)"><g clip-path="url(#a4035d68b7)"><g clip-path="url(#729ecb7d4a)"><path fill="#ffffff" d="M 0.375 0.375 L 957.625 0.375 L 957.625 957.625 L 0.375 957.625 Z M 0.375 0.375 " fill-opacity="1" fill-rule="nonzero"/></g></g></g></g></g></g><g clip-path="url(#7bc1d1e1fa)"><g clip-path="url(#d225ce1f8e)"><g transform="matrix(1, 0, 0, 1, 294, 294)"><g clip-path="url(#a46b779969)"><g clip-path="url(#35ce60527c)"><g clip-path="url(#3741b00789)"><path fill="#f6f3e8" d="M 0.300781 0.300781 L 911.699219 0.300781 L 911.699219 911.699219 L 0.300781 911.699219 Z M 0.300781 0.300781 " fill-opacity="1" fill-rule="nonzero"/></g></g></g></g><g transform="matrix(1, 0, 0, 1, 294, 294)"><g clip-path="url(#87cfad8d00)"><g clip-path="url(#082fd41e66)"><g clip-path="url(#e294e12fe6)"><path fill="#0b420d" d="M 0.300781 0.300781 L 911.699219 0.300781 L 911.699219 911.699219 L 0.300781 911.699219 Z M 0.300781 0.300781 " fill-opacity="1" fill-rule="nonzero"/></g></g></g></g></g></g><g clip-path="url(#8f111dd318)"><g clip-path="url(#0d46cd7158)"><g transform="matrix(1, 0, 0, 1, 420, 420)"><g clip-path="url(#f20d87b1a8)"><g clip-path="url(#167c7c3d0b)"><g clip-path="url(#26f716c796)"><path fill="#ffffff" d="M 0.613281 0.613281 L 659.386719 0.613281 L 659.386719 659.386719 L 0.613281 659.386719 Z M 0.613281 0.613281 " fill-opacity="1" fill-rule="nonzero"/></g></g></g></g></g></g><g clip-path="url(#bef120efaa)"><path fill="#ffffff" d="M 355.929688 711.515625 C 355.339844 712.828125 354.859375 714.179688 354.488281 715.566406 C 353.886719 717.59375 352.902344 720.78125 352.300781 722.664062 C 351.71875 724.53125 350.496094 728.5 349.59375 731.488281 C 347.488281 738.445312 347.207031 739.007812 345.484375 739.730469 C 344.761719 740.03125 343.398438 740.070312 331.347656 740.03125 C 323.90625 740.007812 317.894531 740.089844 317.753906 740.171875 C 317.089844 740.609375 317.613281 741.3125 319.917969 743.078125 C 321.882812 744.5625 329.460938 750.335938 337.121094 756.152344 C 339.828125 758.195312 340.46875 759.078125 340.449219 760.621094 C 340.375 761.601562 340.160156 762.550781 339.808594 763.46875 C 338.367188 767.441406 332.148438 787.8125 332.25 788.152344 C 332.492188 788.875 333.273438 788.554688 335.398438 786.96875 C 340.410156 783.179688 350.636719 775.300781 352.199219 774.035156 C 353.371094 772.902344 354.738281 772.121094 356.3125 771.691406 C 357.191406 771.691406 358.9375 772.8125 363.429688 776.300781 C 366.015625 778.308594 369.585938 781.054688 371.347656 782.378906 C 373.113281 783.699219 375.300781 785.40625 376.222656 786.167969 C 377.359375 787.207031 378.636719 788.027344 380.050781 788.632812 C 380.53125 788.773438 380.53125 788.773438 380.414062 787.710938 C 380.011719 785.851562 379.511719 784.019531 378.910156 782.214844 C 378.125 779.789062 377.023438 776.261719 376.460938 774.398438 C 375.882812 772.511719 374.699219 768.703125 373.835938 765.9375 C 372.972656 763.148438 372.25 760.683594 372.25 760.460938 C 372.382812 759.519531 372.769531 758.695312 373.414062 757.996094 C 373.714844 757.675781 376.761719 755.308594 380.171875 752.722656 C 393.222656 742.878906 395.210938 741.3125 395.269531 740.832031 C 395.332031 740.578125 395.265625 740.363281 395.070312 740.191406 C 394.929688 740.089844 388.855469 740.007812 381.574219 740.007812 C 373.09375 740.007812 368.082031 739.929688 367.597656 739.808594 C 365.894531 739.328125 365.011719 738.003906 364.011719 734.355469 C 363.449219 732.308594 360.902344 723.910156 358.175781 715.144531 C 357.253906 712.136719 356.8125 711.136719 356.410156 711.136719 C 356.21875 711.222656 356.058594 711.351562 355.929688 711.515625 Z M 355.929688 711.515625 " fill-opacity="1" fill-rule="nonzero"/></g><g clip-path="url(#35613beadc)"><path fill="#ffffff" d="M 1143.457031 711.515625 C 1142.867188 712.828125 1142.386719 714.179688 1142.015625 715.566406 C 1141.414062 717.59375 1140.429688 720.78125 1139.828125 722.664062 C 1139.246094 724.53125 1138.023438 728.5 1137.121094 731.488281 C 1135.015625 738.445312 1134.738281 739.007812 1133.011719 739.730469 C 1132.289062 740.03125 1130.925781 740.070312 1118.875 740.03125 C 1111.4375 740.007812 1105.421875 740.089844 1105.28125 740.171875 C 1104.617188 740.609375 1105.140625 741.3125 1107.445312 743.078125 C 1109.410156 744.5625 1116.992188 750.335938 1124.652344 756.152344 C 1127.359375 758.195312 1128 759.078125 1127.980469 760.621094 C 1127.902344 761.601562 1127.6875 762.550781 1127.335938 763.46875 C 1125.894531 767.441406 1119.679688 787.8125 1119.777344 788.152344 C 1120.019531 788.875 1120.800781 788.554688 1122.925781 786.96875 C 1127.9375 783.179688 1138.164062 775.300781 1139.730469 774.035156 C 1140.898438 772.902344 1142.269531 772.121094 1143.839844 771.691406 C 1144.722656 771.691406 1146.464844 772.8125 1150.957031 776.300781 C 1153.542969 778.308594 1157.113281 781.054688 1158.878906 782.378906 C 1160.640625 783.699219 1162.828125 785.40625 1163.75 786.167969 C 1164.886719 787.207031 1166.164062 788.027344 1167.582031 788.632812 C 1168.0625 788.773438 1168.0625 788.773438 1167.941406 787.710938 C 1167.539062 785.851562 1167.039062 784.019531 1166.4375 782.214844 C 1165.65625 779.789062 1164.550781 776.261719 1163.992188 774.398438 C 1163.410156 772.511719 1162.226562 768.703125 1161.363281 765.9375 C 1160.5 763.148438 1159.78125 760.683594 1159.78125 760.460938 C 1159.910156 759.519531 1160.296875 758.695312 1160.941406 757.996094 C 1161.242188 757.675781 1164.292969 755.308594 1167.699219 752.722656 C 1180.753906 742.878906 1182.738281 741.3125 1182.796875 740.832031 C 1182.859375 740.578125 1182.792969 740.363281 1182.597656 740.191406 C 1182.457031 740.089844 1176.382812 740.007812 1169.105469 740.007812 C 1160.621094 740.007812 1155.609375 739.929688 1155.128906 739.808594 C 1153.425781 739.328125 1152.542969 738.003906 1151.539062 734.355469 C 1150.976562 732.308594 1148.429688 723.910156 1145.703125 715.144531 C 1144.78125 712.136719 1144.339844 711.136719 1143.941406 711.136719 C 1143.746094 711.222656 1143.585938 711.351562 1143.457031 711.515625 Z M 1143.457031 711.515625 " fill-opacity="1" fill-rule="nonzero"/></g><g clip-path="url(#e749a8ad2e)"><path fill="#0b420d" d="M 979.652344 806.179688 C 973.890625 806.179688 969.199219 801.488281 969.199219 795.71875 C 969.199219 789.953125 973.890625 785.257812 979.652344 785.257812 C 985.425781 785.257812 990.117188 789.953125 990.117188 795.71875 C 990.117188 801.488281 985.425781 806.179688 979.652344 806.179688 Z M 971.835938 887.621094 C 969.628906 892.949219 963.5 895.492188 958.167969 893.285156 C 952.84375 891.078125 950.300781 884.945312 952.503906 879.609375 C 954.722656 874.289062 960.847656 871.742188 966.179688 873.957031 C 971.507812 876.164062 974.046875 882.292969 971.835938 887.621094 Z M 952.503906 711.824219 C 950.300781 706.492188 952.84375 700.363281 958.167969 698.160156 C 963.5 695.945312 969.628906 698.488281 971.835938 703.8125 C 974.046875 709.148438 971.507812 715.28125 966.179688 717.488281 C 960.847656 719.695312 954.722656 717.148438 952.503906 711.824219 Z M 919.777344 965.53125 C 915.695312 969.617188 909.0625 969.617188 904.980469 965.53125 C 900.90625 961.453125 900.90625 954.816406 904.980469 950.742188 C 909.0625 946.660156 915.695312 946.660156 919.777344 950.742188 C 923.863281 954.816406 923.863281 961.453125 919.777344 965.53125 Z M 841.867188 1017.585938 C 836.535156 1019.800781 830.410156 1017.261719 828.195312 1011.933594 C 825.988281 1006.597656 828.535156 1000.472656 833.859375 998.257812 C 839.191406 996.050781 845.320312 998.597656 847.535156 1003.921875 C 849.738281 1009.253906 847.195312 1015.382812 841.867188 1017.585938 Z M 749.964844 1035.871094 C 744.199219 1035.871094 739.503906 1031.179688 739.503906 1025.414062 C 739.503906 1019.640625 744.199219 1014.953125 749.964844 1014.953125 C 755.734375 1014.953125 760.425781 1019.640625 760.425781 1025.414062 C 760.425781 1031.179688 755.734375 1035.871094 749.964844 1035.871094 Z M 722.84375 914.238281 L 730.824219 914.238281 L 730.589844 975.613281 L 722.414062 975.613281 Z M 747.058594 914.238281 L 747.058594 975.613281 L 736.398438 975.613281 L 736.632812 914.238281 Z M 763.296875 914.238281 L 763.53125 975.613281 L 752.871094 975.613281 L 752.871094 914.238281 Z M 777.085938 914.238281 L 777.519531 975.613281 L 769.34375 975.613281 L 769.109375 914.238281 Z M 671.734375 1011.933594 C 669.523438 1017.261719 663.394531 1019.800781 658.0625 1017.585938 C 652.730469 1015.382812 650.195312 1009.253906 652.402344 1003.921875 C 654.609375 998.597656 660.742188 996.050781 666.070312 998.257812 C 671.398438 1000.472656 673.9375 1006.597656 671.734375 1011.933594 Z M 594.945312 965.53125 C 590.867188 969.617188 584.230469 969.617188 580.152344 965.53125 C 576.070312 961.453125 576.070312 954.816406 580.152344 950.742188 C 584.230469 946.660156 590.867188 946.660156 594.945312 950.742188 C 599.027344 954.816406 599.027344 961.453125 594.945312 965.53125 Z M 541.761719 893.285156 C 536.433594 895.492188 530.300781 892.949219 528.09375 887.621094 C 525.886719 882.292969 528.425781 876.164062 533.757812 873.957031 C 539.085938 871.742188 545.214844 874.289062 547.425781 879.609375 C 549.628906 884.945312 547.089844 891.078125 541.761719 893.285156 Z M 509.8125 795.71875 C 509.8125 789.953125 514.503906 785.257812 520.273438 785.257812 C 526.042969 785.257812 530.734375 789.953125 530.734375 795.71875 C 530.734375 801.488281 526.042969 806.179688 520.273438 806.179688 C 514.503906 806.179688 509.8125 801.488281 509.8125 795.71875 Z M 528.09375 703.8125 C 530.300781 698.488281 536.433594 695.945312 541.761719 698.160156 C 547.089844 700.363281 549.628906 706.492188 547.425781 711.824219 C 545.214844 717.148438 539.085938 719.695312 533.757812 717.488281 C 528.425781 715.28125 525.886719 709.148438 528.09375 703.8125 Z M 580.152344 625.902344 C 584.230469 621.828125 590.867188 621.828125 594.945312 625.902344 C 599.027344 629.988281 599.027344 636.621094 594.945312 640.703125 C 590.867188 644.777344 584.230469 644.777344 580.152344 640.703125 C 576.070312 636.621094 576.070312 629.988281 580.152344 625.902344 Z M 658.0625 573.847656 C 663.394531 571.644531 669.523438 574.179688 671.734375 579.511719 C 673.9375 584.835938 671.398438 590.972656 666.070312 593.179688 C 660.742188 595.382812 654.609375 592.847656 652.402344 587.515625 C 650.195312 582.179688 652.730469 576.054688 658.0625 573.847656 Z M 919.777344 640.703125 C 915.695312 644.777344 909.0625 644.777344 904.980469 640.703125 C 900.90625 636.621094 900.90625 629.988281 904.980469 625.902344 C 909.0625 621.828125 915.695312 621.828125 919.777344 625.902344 C 923.863281 629.988281 923.863281 636.621094 919.777344 640.703125 Z M 847.535156 587.515625 C 845.320312 592.847656 839.191406 595.382812 833.859375 593.179688 C 828.535156 590.972656 825.988281 584.835938 828.195312 579.511719 C 830.410156 574.179688 836.535156 571.644531 841.867188 573.847656 C 847.195312 576.054688 849.738281 582.179688 847.535156 587.515625 Z M 793.339844 544.335938 L 782.164062 -89.917969 L 775.003906 -89.917969 L 780.203125 542.441406 L 780.605469 591.402344 L 780.804688 615.429688 L 794.589844 615.429688 L 794.210938 593.90625 C 887.035156 614.164062 956.542969 696.816406 956.542969 795.71875 C 956.542969 893.777344 888.230469 975.878906 796.59375 997.015625 L 799.359375 990.558594 C 802.394531 983.484375 797.203125 975.613281 789.503906 975.613281 L 783.328125 975.613281 L 782.902344 914.238281 L 844.117188 914.238281 L 844.117188 896.800781 L 782.773438 896.800781 L 780.804688 615.429688 L 774.992188 615.429688 L 776.964844 896.800781 L 769.042969 896.800781 L 767.972656 615.429688 L 762.160156 615.429688 L 763.230469 896.800781 L 752.871094 896.800781 L 752.871094 615.429688 L 747.058594 615.429688 L 747.058594 896.800781 L 736.699219 896.800781 L 737.773438 615.429688 L 731.957031 615.429688 L 730.890625 896.800781 L 722.964844 896.800781 L 724.941406 615.429688 L 719.125 615.429688 L 717.15625 896.800781 L 655.8125 896.800781 L 655.8125 914.238281 L 717.03125 914.238281 L 716.601562 975.613281 L 710.425781 975.613281 C 702.730469 975.613281 697.542969 983.484375 700.574219 990.558594 L 703.339844 997.015625 C 611.703125 975.878906 543.386719 893.777344 543.386719 795.71875 C 543.386719 696.816406 612.894531 614.164062 705.722656 593.90625 L 705.34375 615.429688 L 719.125 615.429688 L 719.324219 591.402344 L 719.726562 542.441406 L 724.925781 -89.917969 L 717.765625 -89.917969 L 706.59375 544.335938 C 586.382812 564.929688 494.894531 669.632812 494.894531 795.71875 C 494.894531 936.59375 609.09375 1050.785156 749.964844 1050.785156 C 890.839844 1050.785156 1005.03125 936.59375 1005.03125 795.71875 C 1005.03125 669.632812 913.550781 564.929688 793.339844 544.335938 " fill-opacity="1" fill-rule="nonzero"/></g><g clip-path="url(#99345aea76)"><path fill="#0b420d" d="M 732.074219 589.921875 L 732.289062 541.265625 L 735.089844 -89.917969 L 730.742188 -89.917969 L 725.542969 541.816406 L 725.144531 590.632812 L 724.941406 615.429688 L 731.957031 615.429688 L 732.074219 589.921875 " fill-opacity="1" fill-rule="nonzero"/></g><g clip-path="url(#09cec4b6a6)"><path fill="#0b420d" d="M 747.058594 589.179688 L 747.058594 -89.917969 L 740.910156 -89.917969 L 738.101562 540.929688 L 737.886719 589.5 L 737.773438 615.429688 L 747.058594 615.429688 L 747.058594 589.179688 " fill-opacity="1" fill-rule="nonzero"/></g><g clip-path="url(#edb60912e8)"><path fill="#0b420d" d="M 774.789062 590.632812 L 774.386719 541.816406 L 769.191406 -89.917969 L 764.832031 -89.917969 L 767.640625 541.265625 L 767.859375 589.921875 L 767.972656 615.429688 L 774.992188 615.429688 L 774.789062 590.632812 " fill-opacity="1" fill-rule="nonzero"/></g><g clip-path="url(#5b4ac8dec0)"><path fill="#0b420d" d="M 762.046875 589.5 L 761.828125 540.929688 L 759.03125 -89.917969 L 752.871094 -89.917969 L 752.871094 615.429688 L 762.160156 615.429688 L 762.046875 589.5 " fill-opacity="1" fill-rule="nonzero"/></g><g transform="matrix(1, 0, 0, 1, 349, 329)"><g clip-path="url(#406d0f3031)"><g fill="#ffffff" fill-opacity="1"><g transform="translate(46.861978, 294.267654)"><g><path d="M 8.109375 -23.5 C 9.585938 -26.695312 9.335938 -29.703125 7.359375 -32.515625 C 5.378906 -35.328125 1.613281 -38.019531 -3.9375 -40.59375 C -9.5 -43.1875 -13.992188 -44.332031 -17.421875 -44.03125 C -20.847656 -43.726562 -23.300781 -41.976562 -24.78125 -38.78125 C -26.257812 -35.59375 -26 -32.578125 -24 -29.734375 C -22 -26.898438 -18.242188 -24.203125 -12.734375 -21.640625 C -7.222656 -19.085938 -2.742188 -17.960938 0.703125 -18.265625 C 4.160156 -18.566406 6.628906 -20.3125 8.109375 -23.5 Z M 11.140625 -22.09375 C 8.203125 -15.769531 4.171875 -11.613281 -0.953125 -9.625 C -6.078125 -7.632812 -11.675781 -8.050781 -17.75 -10.875 C -23.8125 -13.695312 -27.738281 -17.707031 -29.53125 -22.90625 C -31.332031 -28.113281 -30.765625 -33.875 -27.828125 -40.1875 C -24.898438 -46.5 -20.867188 -50.648438 -15.734375 -52.640625 C -10.609375 -54.628906 -5.003906 -54.207031 1.078125 -51.375 C 7.148438 -48.550781 11.078125 -44.539062 12.859375 -39.34375 C 14.640625 -34.144531 14.066406 -28.394531 11.140625 -22.09375 Z M 11.140625 -22.09375 "/></g></g></g><g fill="#ffffff" fill-opacity="1"><g transform="translate(73.706549, 239.289144)"><g><path d="M 1.171875 -1.765625 L -2.078125 -3.921875 L -16.515625 -43.140625 L -27.484375 -26.609375 L -22.34375 -23.203125 L -24.4375 -20.03125 L -32.765625 -25.546875 L -12.90625 -55.515625 L -9.625 -53.34375 L 4.953125 -14.34375 L 16.515625 -31.78125 L 11.6875 -34.984375 L 13.78125 -38.15625 L 21.78125 -32.859375 Z M 1.171875 -1.765625 "/></g></g></g><g fill="#ffffff" fill-opacity="1"><g transform="translate(103.779334, 195.294547)"><g><path d="M -0.296875 0.328125 L -2.796875 -1.90625 L -0.546875 -4.421875 L -18.546875 -41.421875 L -14.140625 -46.359375 L 24.65625 -32.65625 L 27.28125 -35.59375 L 29.78125 -33.359375 L 16.875 -18.890625 L 14.375 -21.125 L 17.0625 -24.140625 L 8.484375 -27.25 L -1.875 -15.640625 L 2.125 -7.40625 L 5.40625 -11.09375 L 7.90625 -8.859375 Z M -3.46875 -18.890625 L 5.078125 -28.46875 L -11 -34.25 Z M -3.46875 -18.890625 "/></g></g></g><g fill="#ffffff" fill-opacity="1"><g transform="translate(141.508148, 154.194687)"><g><path d="M 10.34375 -34.796875 C 11.769531 -35.660156 13.1875 -36.125 14.59375 -36.1875 C 16 -36.25 17.539062 -35.921875 19.21875 -35.203125 L 31.21875 -30.1875 L 34.5 -32.890625 L 36.640625 -30.296875 L 26.140625 -21.625 L 13.09375 -27.0625 C 10.445312 -28.226562 8.550781 -28.800781 7.40625 -28.78125 C 6.257812 -28.769531 5.078125 -28.253906 3.859375 -27.234375 L 2.546875 -26.15625 L 12.21875 -14.46875 L 16.328125 -17.875 L 18.46875 -15.28125 L 2.046875 -1.6875 L -0.09375 -4.28125 L 4 -7.671875 L -18.109375 -34.40625 L -22.203125 -31.015625 L -24.359375 -33.609375 L -6.140625 -48.6875 C -2.429688 -51.75 1.046875 -53.367188 4.296875 -53.546875 C 7.546875 -53.722656 10.300781 -52.441406 12.5625 -49.703125 C 14.40625 -47.484375 15.144531 -45.132812 14.78125 -42.65625 C 14.414062 -40.175781 12.9375 -37.554688 10.34375 -34.796875 Z M 0.421875 -28.71875 L 3.234375 -31.046875 C 5.222656 -32.691406 6.304688 -34.5 6.484375 -36.46875 C 6.671875 -38.445312 5.9375 -40.441406 4.28125 -42.453125 C 2.613281 -44.460938 0.800781 -45.554688 -1.15625 -45.734375 C -3.113281 -45.910156 -5.085938 -45.175781 -7.078125 -43.53125 L -9.890625 -41.203125 Z M 0.421875 -28.71875 "/></g></g></g><g fill="#ffffff" fill-opacity="1"><g transform="translate(187.357975, 117.344812)"><g><path d="M 2.28125 -1.34375 L 0.578125 -4.234375 L 5.15625 -6.9375 L -12.5 -36.8125 L -17.078125 -34.109375 L -18.78125 -37.015625 L -0.421875 -47.859375 L 1.28125 -44.953125 L -3.3125 -42.25 L 4.375 -29.234375 L 11.8125 -51.171875 L 7.984375 -48.921875 L 6.28125 -51.828125 L 19.59375 -59.6875 L 21.296875 -56.78125 L 16.53125 -53.96875 L 10.25 -35.390625 L 38.8125 -26.8125 L 42.3125 -28.890625 L 44.015625 -26 L 31.9375 -18.859375 L 5.828125 -26.796875 L 14.34375 -12.375 L 18.9375 -15.078125 L 20.640625 -12.1875 Z M 2.28125 -1.34375 "/></g></g></g><g fill="#ffffff" fill-opacity="1"><g transform="translate(241.122404, 87.508182)"><g/></g></g><g fill="#ffffff" fill-opacity="1"><g transform="translate(270.635346, 74.790989)"><g><path d="M 2.53125 -0.78125 L 1.546875 -3.984375 L 6.625 -5.546875 L -3.609375 -38.71875 L -8.6875 -37.15625 L -9.671875 -40.359375 L 25.625 -51.234375 L 28.5 -41.90625 L 24.859375 -40.78125 L 23.109375 -46.46875 L 6.796875 -41.453125 L 10.703125 -28.765625 L 20.734375 -31.84375 L 19.1875 -36.875 L 22.828125 -38 L 27.046875 -24.328125 L 23.40625 -23.203125 L 21.84375 -28.25 L 11.8125 -25.171875 L 16.890625 -8.71875 L 23.109375 -10.625 L 24.09375 -7.421875 Z M 2.53125 -0.78125 "/></g></g></g><g fill="#ffffff" fill-opacity="1"><g transform="translate(320.569179, 59.959992)"><g><path d="M 24.0625 -6.203125 C 27.550781 -6.734375 29.921875 -8.597656 31.171875 -11.796875 C 32.429688 -15.003906 32.601562 -19.632812 31.6875 -25.6875 C 30.769531 -31.757812 29.238281 -36.140625 27.09375 -38.828125 C 24.945312 -41.515625 22.128906 -42.59375 18.640625 -42.0625 C 15.171875 -41.539062 12.804688 -39.664062 11.546875 -36.4375 C 10.285156 -33.207031 10.109375 -28.582031 11.015625 -22.5625 C 11.921875 -16.5625 13.453125 -12.203125 15.609375 -9.484375 C 17.773438 -6.773438 20.59375 -5.679688 24.0625 -6.203125 Z M 24.5625 -2.90625 C 17.675781 -1.863281 11.988281 -2.925781 7.5 -6.09375 C 3.007812 -9.269531 0.265625 -14.171875 -0.734375 -20.796875 C -1.734375 -27.410156 -0.554688 -32.90625 2.796875 -37.28125 C 6.148438 -41.65625 11.265625 -44.359375 18.140625 -45.390625 C 25.035156 -46.429688 30.722656 -45.363281 35.203125 -42.1875 C 39.679688 -39.007812 42.421875 -34.101562 43.421875 -27.46875 C 44.421875 -20.84375 43.242188 -15.351562 39.890625 -11 C 36.546875 -6.644531 31.4375 -3.945312 24.5625 -2.90625 Z M 24.5625 -2.90625 "/></g></g></g><g fill="#ffffff" fill-opacity="1"><g transform="translate(381.26185, 52.02623)"><g><path d="M 2.65625 0 L 2.65625 -3.359375 L 7.96875 -3.375 L 7.90625 -38.078125 L 2.59375 -38.0625 L 2.59375 -41.421875 L 23.90625 -41.453125 L 23.90625 -38.09375 L 18.578125 -38.09375 L 18.640625 -3.828125 L 34.953125 -3.84375 L 34.9375 -10.390625 L 38.6875 -10.40625 L 38.703125 -0.0625 Z M 2.65625 0 "/></g></g></g><g fill="#ffffff" fill-opacity="1"><g transform="translate(432.972114, 52.473701)"><g><path d="M 2.625 0.390625 L 3.109375 -2.9375 L 8.375 -2.15625 L 13.46875 -36.484375 L 8.203125 -37.265625 L 8.6875 -40.578125 L 29.765625 -37.453125 L 29.28125 -34.140625 L 24.015625 -34.921875 L 21.796875 -19.953125 L 41.390625 -32.359375 L 37 -33 L 37.484375 -36.3125 L 52.765625 -34.0625 L 52.28125 -30.75 L 46.8125 -31.5625 L 30.25 -21.078125 L 47.03125 3.5625 L 51.0625 4.15625 L 50.578125 7.484375 L 36.6875 5.421875 L 21.375 -17.15625 L 18.921875 -0.59375 L 24.1875 0.1875 L 23.703125 3.515625 Z M 2.625 0.390625 "/></g></g></g><g fill="#ffffff" fill-opacity="1"><g transform="translate(493.531827, 63.108885)"><g/></g></g><g fill="#ffffff" fill-opacity="1"><g transform="translate(524.428102, 71.623947)"><g><path d="M 43.65625 5.0625 C 41.03125 8.601562 38.015625 10.796875 34.609375 11.640625 C 31.210938 12.484375 27.304688 12.003906 22.890625 10.203125 C 16.421875 7.554688 12.035156 3.6875 9.734375 -1.40625 C 7.429688 -6.507812 7.53125 -12.117188 10.03125 -18.234375 C 12.53125 -24.359375 16.382812 -28.441406 21.59375 -30.484375 C 26.8125 -32.523438 32.65625 -32.222656 39.125 -29.578125 C 41.40625 -28.648438 43.664062 -27.40625 45.90625 -25.84375 C 48.15625 -24.28125 50.421875 -22.390625 52.703125 -20.171875 L 48.859375 -10.734375 L 45.609375 -12.0625 C 46.253906 -15.550781 46.019531 -18.457031 44.90625 -20.78125 C 43.800781 -23.101562 41.804688 -24.859375 38.921875 -26.046875 C 35.179688 -27.566406 31.84375 -27.320312 28.90625 -25.3125 C 25.96875 -23.300781 23.335938 -19.445312 21.015625 -13.75 C 18.679688 -8.039062 17.863281 -3.445312 18.5625 0.03125 C 19.257812 3.507812 21.492188 6.019531 25.265625 7.5625 C 27.816406 8.601562 30.191406 8.742188 32.390625 7.984375 C 34.585938 7.222656 36.640625 5.550781 38.546875 2.96875 Z M 43.65625 5.0625 "/></g></g></g><g fill="#ffffff" fill-opacity="1"><g transform="translate(576.81289, 94.021647)"><g><path d="M 2.28125 1.359375 L 4 -1.53125 L 8.578125 1.171875 L 26.265625 -28.6875 L 21.6875 -31.390625 L 23.390625 -34.28125 L 55.421875 -15.3125 L 50.453125 -6.90625 L 47.171875 -8.84375 L 50.203125 -13.96875 L 35.203125 -22.859375 L 28.4375 -11.421875 L 37.765625 -5.890625 L 40.4375 -10.421875 L 43.703125 -8.484375 L 36.421875 3.828125 L 33.15625 1.890625 L 35.84375 -2.65625 L 26.515625 -8.1875 L 17.96875 6.234375 L 33.421875 15.390625 L 36.46875 10.25 L 39.734375 12.1875 L 34.75 20.59375 Z M 2.28125 1.359375 "/></g></g></g><g fill="#ffffff" fill-opacity="1"><g transform="translate(623.794662, 122.52438)"><g><path d="M 1.921875 1.59375 L 4.0625 -1 L 8.15625 2.375 L 30.265625 -24.375 L 26.171875 -27.75 L 28.3125 -30.328125 L 38.296875 -22.078125 L 38.890625 16.4375 L 55.4375 -3.578125 L 51.359375 -6.9375 L 53.5 -9.515625 L 64.65625 -0.28125 L 62.515625 2.296875 L 58.4375 -1.078125 L 34.1875 28.265625 L 28.59375 23.625 L 28.09375 -15.625 L 11.15625 4.859375 L 15.234375 8.234375 L 13.09375 10.828125 Z M 1.921875 1.59375 "/></g></g></g><g fill="#ffffff" fill-opacity="1"><g transform="translate(671.960887, 163.990487)"><g><path d="M 6.828125 7.703125 L 9.34375 5.46875 L 12.984375 9.578125 L 38.609375 -13.140625 L 31.078125 -21.640625 L 26.171875 -17.296875 L 23.65625 -20.125 L 31.40625 -27 L 58.640625 3.703125 L 50.890625 10.578125 L 48.421875 7.78125 L 53.328125 3.4375 L 45.734375 -5.109375 L 20.109375 17.609375 L 23.78125 21.734375 L 21.265625 23.96875 Z M 6.828125 7.703125 "/></g></g></g><g fill="#ffffff" fill-opacity="1"><g transform="translate(707.246702, 204.993718)"><g><path d="M 1.453125 2.21875 L 4.265625 0.375 L 7.1875 4.8125 L 36.171875 -14.265625 L 33.25 -18.703125 L 36.0625 -20.546875 L 56.53125 10.5625 L 48.375 15.921875 L 46.265625 12.71875 L 51.234375 9.453125 L 41.671875 -5.09375 L 30.578125 2.203125 L 36.53125 11.25 L 40.921875 8.359375 L 43.015625 11.53125 L 31.0625 19.390625 L 28.96875 16.21875 L 33.375 13.328125 L 27.421875 4.28125 L 13.421875 13.484375 L 23.28125 28.484375 L 28.265625 25.203125 L 30.359375 28.375 L 22.203125 33.75 Z M 1.453125 2.21875 "/></g></g></g><g fill="#ffffff" fill-opacity="1"><g transform="translate(736.884617, 251.355416)"><g><path d="M 30.984375 18.921875 C 31.453125 20.515625 31.535156 22 31.234375 23.375 C 30.941406 24.75 30.234375 26.15625 29.109375 27.59375 L 21.171875 37.90625 L 22.953125 41.765625 L 19.90625 43.171875 L 14.203125 30.8125 L 22.796875 19.578125 C 24.617188 17.335938 25.664062 15.65625 25.9375 14.53125 C 26.207031 13.414062 26.007812 12.132812 25.34375 10.6875 L 24.640625 9.15625 L 10.859375 15.515625 L 13.078125 20.359375 L 10.03125 21.765625 L 1.109375 2.40625 L 4.15625 1 L 6.390625 5.828125 L 37.90625 -8.703125 L 35.671875 -13.53125 L 38.71875 -14.9375 L 48.625 6.53125 C 50.632812 10.90625 51.304688 14.679688 50.640625 17.859375 C 49.984375 21.046875 48.046875 23.382812 44.828125 24.875 C 42.203125 26.082031 39.738281 26.191406 37.4375 25.203125 C 35.144531 24.222656 32.992188 22.128906 30.984375 18.921875 Z M 27.65625 7.765625 L 29.171875 11.078125 C 30.253906 13.421875 31.726562 14.929688 33.59375 15.609375 C 35.457031 16.296875 37.570312 16.09375 39.9375 15 C 42.3125 13.90625 43.832031 12.429688 44.5 10.578125 C 45.175781 8.734375 44.972656 6.640625 43.890625 4.296875 L 42.375 0.984375 Z M 27.65625 7.765625 "/></g></g></g></g></g><g transform="matrix(1, 0, 0, 1, 359, 903)"><g clip-path="url(#a77add519b)"><g fill="#ffffff" fill-opacity="1"><g transform="translate(18.310371, 42.842499)"><g><path d="M 5.734375 3.8125 L 17.703125 -3.609375 L 20.375 0.6875 C 16.988281 3.695312 15.113281 6.992188 14.75 10.578125 C 14.394531 14.171875 15.554688 18.117188 18.234375 22.421875 C 20.398438 25.910156 22.710938 28.148438 25.171875 29.140625 C 27.628906 30.128906 30.140625 29.828125 32.703125 28.234375 C 34.722656 26.972656 35.910156 25.375 36.265625 23.4375 C 36.617188 21.507812 36.085938 18.304688 34.671875 13.828125 L 31.828125 5.109375 C 30.015625 -0.597656 29.601562 -5.148438 30.59375 -8.546875 C 31.59375 -11.941406 34.164062 -14.925781 38.3125 -17.5 C 43.300781 -20.601562 48.21875 -21.351562 53.0625 -19.75 C 57.90625 -18.15625 62.1875 -14.367188 65.90625 -8.390625 C 67.738281 -5.441406 69.394531 -2.222656 70.875 1.265625 C 72.363281 4.765625 73.675781 8.535156 74.8125 12.578125 L 63.671875 19.5 L 61 15.203125 C 64.0625 12.390625 65.710938 9.378906 65.953125 6.171875 C 66.191406 2.972656 65.039062 -0.660156 62.5 -4.734375 C 60.4375 -8.066406 58.296875 -10.21875 56.078125 -11.1875 C 53.867188 -12.164062 51.617188 -11.945312 49.328125 -10.53125 C 47.222656 -9.226562 45.988281 -7.648438 45.625 -5.796875 C 45.269531 -3.953125 45.921875 -0.378906 47.578125 4.921875 L 50.4375 13.625 C 52.164062 19.03125 52.445312 23.554688 51.28125 27.203125 C 50.125 30.847656 47.375 34.019531 43.03125 36.71875 C 37.9375 39.875 32.972656 40.515625 28.140625 38.640625 C 23.316406 36.773438 18.789062 32.4375 14.5625 25.625 C 12.507812 22.332031 10.757812 18.890625 9.3125 15.296875 C 7.863281 11.710938 6.671875 7.882812 5.734375 3.8125 Z M 5.734375 3.8125 "/></g></g></g><g fill="#ffffff" fill-opacity="1"><g transform="translate(71.005052, 120.378769)"><g><path d="M 10.390625 10.46875 L 13.8125 7.078125 L 19.34375 12.65625 L 54.1875 -21.90625 L 42.75 -33.4375 L 36.09375 -26.828125 L 32.25 -30.703125 L 42.765625 -41.140625 L 84.1875 0.625 L 73.671875 11.0625 L 69.890625 7.25 L 76.546875 0.640625 L 65.03125 -10.96875 L 30.1875 23.59375 L 35.75 29.203125 L 32.328125 32.59375 Z M 10.390625 10.46875 "/></g></g></g><g fill="#ffffff" fill-opacity="1"><g transform="translate(141.105443, 185.496107)"><g><path d="M -0.546875 -0.34375 L 2 -4.421875 L 6.125 -1.84375 L 53.953125 -36.25 L 62 -31.203125 L 52.09375 26.875 L 56.875 29.875 L 54.328125 33.953125 L 30.765625 19.21875 L 33.3125 15.140625 L 38.25 18.234375 L 40.515625 5.359375 L 21.609375 -6.453125 L 10.96875 1.1875 L 16.984375 4.9375 L 14.4375 9.015625 Z M 25.796875 -9.515625 L 41.40625 0.25 L 45.6875 -23.84375 Z M 25.796875 -9.515625 "/></g></g></g><g fill="#ffffff" fill-opacity="1"><g transform="translate(226.566973, 233.935637)"><g><path d="M 13.96875 4.75 L 15.515625 0.1875 L 22.953125 2.71875 L 38.75 -43.75 L 23.359375 -48.984375 L 20.34375 -40.09375 L 15.1875 -41.84375 L 19.953125 -55.875 L 75.65625 -36.953125 L 70.890625 -22.921875 L 65.796875 -24.65625 L 68.8125 -33.546875 L 53.328125 -38.8125 L 37.53125 7.65625 L 45.015625 10.203125 L 43.46875 14.765625 Z M 13.96875 4.75 "/></g></g></g><g fill="#ffffff" fill-opacity="1"><g transform="translate(318.31224, 260.938703)"><g><path d="M 3.796875 0.375 L 4.265625 -4.421875 L 11.8125 -3.6875 L 16.6875 -53.15625 L 9.140625 -53.890625 L 9.609375 -58.671875 L 62.671875 -53.453125 L 61.296875 -39.53125 L 55.84375 -40.0625 L 56.6875 -48.5625 L 31.859375 -51.015625 L 29.984375 -32.078125 L 45.453125 -30.546875 L 46.203125 -38.0625 L 51.609375 -37.53125 L 49.59375 -17.109375 L 44.1875 -17.640625 L 44.921875 -25.171875 L 29.453125 -26.703125 L 27.109375 -2.796875 L 52.703125 -0.28125 L 53.546875 -8.796875 L 58.953125 -8.265625 L 57.578125 5.65625 Z M 3.796875 0.375 "/></g></g></g><g fill="#ffffff" fill-opacity="1"><g transform="translate(414.217276, 265.542136)"><g/></g></g><g fill="#ffffff" fill-opacity="1"><g transform="translate(476.278089, 258.213144)"><g><path d="M 3.671875 -1.046875 L 2.34375 -5.671875 L 9.640625 -7.765625 L -4.03125 -55.5625 L -11.328125 -53.46875 L -12.65625 -58.078125 L 19.8125 -67.375 C 26.15625 -69.1875 31.628906 -69.125 36.234375 -67.1875 C 40.847656 -65.25 43.878906 -61.738281 45.328125 -56.65625 C 46.785156 -51.570312 46.070312 -46.96875 43.1875 -42.84375 C 40.300781 -38.726562 35.695312 -35.765625 29.375 -33.953125 L 18.90625 -30.953125 L 24.34375 -11.96875 L 33.546875 -14.609375 L 34.875 -9.984375 Z M 17.59375 -35.578125 L 21.875 -36.8125 C 25.1875 -37.757812 27.515625 -39.613281 28.859375 -42.375 C 30.203125 -45.144531 30.34375 -48.375 29.28125 -52.0625 C 28.226562 -55.738281 26.410156 -58.382812 23.828125 -60 C 21.242188 -61.613281 18.285156 -61.945312 14.953125 -61 L 10.671875 -59.765625 Z M 17.59375 -35.578125 "/></g></g></g><g fill="#ffffff" fill-opacity="1"><g transform="translate(567.719169, 227.915105)"><g><path d="M -0.5625 0.3125 L -2.90625 -3.890625 L 1.34375 -6.265625 L -5.828125 -64.734375 L 2.46875 -69.375 L 48.625 -32.75 L 53.546875 -35.5 L 55.890625 -31.296875 L 31.65625 -17.734375 L 29.3125 -21.9375 L 34.375 -24.765625 L 24.171875 -32.953125 L 4.71875 -22.0625 L 6.328125 -9.0625 L 12.5 -12.515625 L 14.84375 -8.3125 Z M 4.078125 -27.203125 L 20.125 -36.1875 L 1.0625 -51.515625 Z M 4.078125 -27.203125 "/></g></g></g><g fill="#ffffff" fill-opacity="1"><g transform="translate(651.63969, 176.359056)"><g><path d="M 11.84375 -50.640625 C 13.800781 -52.003906 15.785156 -52.789062 17.796875 -53 C 19.804688 -53.207031 22.039062 -52.875 24.5 -52 L 42.09375 -45.8125 L 46.53125 -49.953125 L 49.8125 -46.4375 L 35.546875 -33.140625 L 16.40625 -39.796875 C 12.539062 -41.265625 9.789062 -41.929688 8.15625 -41.796875 C 6.519531 -41.671875 4.863281 -40.832031 3.1875 -39.28125 L 1.421875 -37.625 L 16.25 -21.71875 L 21.84375 -26.9375 L 25.125 -23.421875 L 2.78125 -2.59375 L -0.5 -6.109375 L 5.0625 -11.296875 L -28.84375 -47.671875 L -34.40625 -42.484375 L -37.671875 -45.984375 L -12.90625 -69.078125 C -7.863281 -73.773438 -3.03125 -76.390625 1.59375 -76.921875 C 6.226562 -77.460938 10.28125 -75.867188 13.75 -72.140625 C 16.5625 -69.117188 17.8125 -65.820312 17.5 -62.25 C 17.195312 -58.675781 15.3125 -54.804688 11.84375 -50.640625 Z M -1.828125 -41.109375 L 1.984375 -44.65625 C 4.691406 -47.1875 6.09375 -49.875 6.1875 -52.71875 C 6.289062 -55.5625 5.066406 -58.347656 2.515625 -61.078125 C -0.0234375 -63.804688 -2.707031 -65.210938 -5.53125 -65.296875 C -8.363281 -65.390625 -11.132812 -64.171875 -13.84375 -61.640625 L -17.65625 -58.09375 Z M -1.828125 -41.109375 "/></g></g></g><g fill="#ffffff" fill-opacity="1"><g transform="translate(724.170709, 102.915537)"><g><path d="M 2.0625 -3.203125 L -1.984375 -5.796875 L 2.125 -12.1875 L -39.703125 -39.0625 L -43.8125 -32.671875 L -47.859375 -35.265625 L -31.359375 -60.953125 L -27.3125 -58.359375 L -31.4375 -51.9375 L -13.203125 -40.234375 L -17.84375 -73.109375 L -21.28125 -67.75 L -25.328125 -70.34375 L -13.359375 -88.96875 L -9.3125 -86.375 L -13.59375 -79.734375 L -9.6875 -51.90625 L 32.375 -59.3125 L 35.546875 -64.21875 L 39.59375 -61.625 L 28.71875 -44.703125 L -9.796875 -38.046875 L 10.390625 -25.0625 L 14.515625 -31.484375 L 18.5625 -28.890625 Z M 2.0625 -3.203125 "/></g></g></g></g></g></svg>